<?xml version="1.0" standalone="no"?>
<!DOCTYPE svg PUBLIC "-//W3C//DTD SVG 20010904//EN"
 "http://www.w3.org/TR/2001/REC-SVG-20010904/DTD/svg10.dtd">
<svg version="1.0" xmlns="http://www.w3.org/2000/svg"
 width="250.000000pt" height="250.000000pt" viewBox="0 0 250.000000 250.000000"
 preserveAspectRatio="xMidYMid meet">
<metadata>
Created by potrace 1.16, written by Peter Selinger 2001-2019
</metadata>
<g transform="translate(0.000000,250.000000) scale(0.100000,-0.100000)"
fill="#000000" stroke="none">
<path d="M1046 2429 c-35 -27 -70 -94 -76 -144 -3 -28 -10 -40 -20 -39 -9 1
-56 4 -106 8 -82 7 -92 5 -117 -14 -31 -24 -36 -64 -13 -108 13 -24 12 -30 -6
-51 -19 -24 -19 -25 -66 -8 -57 21 -121 22 -165 3 -76 -32 -175 -186 -185
-287 -6 -68 14 -132 60 -190 l39 -49 -24 -33 c-59 -79 -109 -180 -133 -268
-23 -82 -25 -107 -21 -199 13 -247 74 -364 260 -503 38 -28 75 -63 83 -79 8
-15 19 -62 25 -105 6 -43 18 -86 26 -95 22 -24 79 -41 119 -35 19 3 34 4 34 2
0 -1 -16 -36 -35 -76 -19 -41 -37 -93 -41 -116 l-7 -43 35 0 c35 0 36 1 62 74
15 41 43 98 61 127 19 30 35 57 35 61 0 3 16 30 35 59 19 30 35 57 35 61 0 4
16 33 35 65 19 32 47 93 61 137 22 65 26 91 22 150 -5 75 -35 148 -79 196 -33
34 -114 87 -157 101 -34 11 -35 12 -16 26 30 24 85 45 133 52 50 7 72 31 55
58 -25 41 -146 20 -231 -39 -63 -43 -90 -72 -121 -133 -54 -108 -66 -224 -33
-348 14 -56 15 -69 4 -79 -31 -26 -230 142 -268 227 -79 178 -76 392 7 550 48
92 135 210 199 269 73 67 187 131 253 142 37 5 38 5 32 -18 -33 -107 -35 -201
-7 -256 18 -35 73 -90 138 -138 55 -40 93 -49 214 -49 111 0 117 1 183 34 124
63 219 193 232 317 7 68 17 78 114 119 95 40 139 39 240 -7 47 -22 127 -53
179 -70 52 -17 115 -45 140 -62 55 -37 100 -113 101 -169 0 -40 -33 -113 -74
-162 l-25 -30 11 36 c6 20 8 48 5 61 -10 37 -81 113 -124 132 -21 10 -56 27
-78 39 -60 32 -285 109 -324 111 -71 3 -67 -59 9 -131 l49 -46 -24 -23 c-14
-13 -25 -30 -25 -39 0 -22 19 -57 39 -72 14 -10 13 -14 -9 -32 -14 -12 -37
-28 -52 -36 -29 -16 -44 -52 -35 -84 4 -15 -8 -24 -64 -46 -104 -42 -132 -104
-65 -143 19 -12 49 -40 65 -64 17 -24 35 -48 40 -54 19 -23 69 -131 89 -194
42 -128 54 -217 59 -453 l6 -227 40 0 40 0 -6 213 c-4 116 -13 255 -21 307
-28 183 -113 376 -217 494 l-31 36 29 12 c27 11 55 12 228 7 49 -1 107 4 150
15 348 84 497 362 306 569 -39 42 -65 55 -215 110 -28 10 -28 11 -7 19 21 7
51 62 51 92 0 30 -57 81 -103 93 -49 13 -101 8 -200 -22 -76 -23 -90 -20 -112
21 -38 70 -144 166 -237 213 -79 40 -96 45 -180 50 l-93 6 -58 85 c-59 88 -98
130 -121 130 -7 0 -25 -9 -40 -21z m89 -140 c22 -33 49 -77 61 -97 l20 -37
115 -6 c121 -5 141 -12 239 -78 49 -34 140 -135 140 -157 0 -7 -15 -21 -32
-30 -18 -9 -52 -30 -75 -47 l-42 -29 -57 61 c-73 80 -192 141 -289 149 -60 4
-70 2 -147 -36 -50 -24 -100 -58 -126 -84 -35 -37 -48 -44 -72 -40 -16 2 -32
12 -35 21 -3 10 -21 44 -40 75 l-35 58 21 29 c11 16 24 29 29 29 11 0 40 58
40 81 0 9 -6 20 -12 23 -13 6 30 3 128 -9 67 -8 84 7 84 79 0 54 17 106 35
105 6 0 28 -27 50 -60z m-527 -283 c46 -16 98 -52 106 -72 4 -10 -3 -9 -29 2
-47 19 -78 18 -135 -7 -81 -35 -116 -114 -105 -235 8 -85 0 -93 -41 -38 -35
46 -43 122 -20 192 30 89 109 170 167 172 9 0 35 -6 57 -14z m724 -106 c68
-34 131 -88 154 -133 9 -16 18 -59 21 -96 6 -78 -9 -116 -76 -193 -133 -150
-398 -143 -512 14 -24 34 -29 51 -29 95 0 82 26 161 53 165 17 2 23 11 25 35
3 33 59 93 85 93 7 0 24 10 36 22 51 47 146 46 243 -2z m743 -455 c145 -73
160 -116 67 -203 -76 -71 -202 -119 -202 -77 0 19 -31 35 -67 35 -48 0 -59 15
-28 36 80 55 93 89 50 126 -14 12 -25 25 -25 28 0 4 11 12 25 18 33 15 34 66
3 99 l-22 24 49 -18 c27 -10 95 -40 150 -68z m-1272 -493 c75 -35 131 -82 158
-133 24 -48 25 -146 3 -212 -13 -39 -135 -271 -149 -286 -7 -6 -35 66 -35 89
0 12 -12 47 -26 78 -14 31 -32 71 -40 88 -23 52 -44 146 -44 196 0 87 35 208
60 208 6 0 39 -13 73 -28z"/>
<path d="M1180 1829 c-25 -5 -51 -7 -59 -4 -26 10 -50 -6 -78 -53 -44 -74 -54
-102 -60 -173 -6 -69 7 -109 48 -150 55 -55 176 -76 245 -43 75 36 153 151
154 227 0 80 -44 145 -125 183 -54 26 -58 26 -125 13z"/>
<path d="M2175 1108 c-63 -22 -129 -85 -198 -187 -54 -81 -77 -149 -77 -229 1
-83 13 -117 74 -212 104 -160 134 -316 90 -462 -4 -15 1 -18 35 -18 38 0 40 2
48 37 13 62 7 214 -11 263 -9 25 -16 52 -16 60 0 9 -21 51 -47 95 -90 155
-103 185 -103 239 0 56 29 127 85 211 61 93 124 135 201 135 132 0 234 -126
234 -289 l0 -56 -21 34 c-24 40 -68 83 -119 117 -46 32 -100 32 -137 0 -25
-22 -28 -31 -31 -104 -4 -76 14 -164 38 -197 16 -22 58 -154 70 -221 8 -45 11
-119 8 -198 l-5 -126 32 0 c21 0 35 6 39 16 15 39 18 189 6 276 -12 85 -27
135 -96 328 -36 99 -31 170 12 170 53 0 142 -114 158 -202 6 -32 28 -58 50
-58 3 0 6 101 6 224 l0 224 -26 32 c-74 87 -206 131 -299 98z"/>
</g>
</svg>
